<svg width="310" height="300" viewBox="0 0 310 300" fill="none" xmlns="http://www.w3.org/2000/svg">
    <rect width="310" height="300" fill="#F4F5FF"/>
    <path d="M123.676 217.51C126.512 220.266 124.508 225.004 120.462 225.004H95.074C92.7039 225.034 90.4183 224.125 88.7177 222.477C87.017 220.828 86.0398 218.574 86 216.208V191.67C86 187.725 90.8962 185.781 93.7507 188.537L123.676 217.51ZM163.318 219.417C161.531 217.651 160.113 215.549 159.145 213.233C158.177 210.916 157.678 208.431 157.678 205.921C157.678 203.411 158.177 200.926 159.145 198.609C160.113 196.293 161.531 194.191 163.318 192.425L190.464 165.547C194.082 161.966 198.971 159.957 204.066 159.957C209.16 159.957 214.049 161.966 217.667 165.547C219.454 167.313 220.872 169.415 221.84 171.731C222.808 174.048 223.307 176.533 223.307 179.043C223.307 181.553 222.808 184.038 221.84 186.355C220.872 188.671 219.454 190.773 217.667 192.539L190.54 219.398C186.921 222.985 182.028 224.998 176.929 224.998C171.829 224.998 166.937 222.985 163.318 219.398V219.417ZM91.7279 151.844C89.9441 150.079 88.5281 147.978 87.5618 145.663C86.5955 143.349 86.098 140.866 86.098 138.358C86.098 135.85 86.5955 133.367 87.5618 131.052C88.5281 128.738 89.9441 126.637 91.7279 124.872L137.344 79.5905C140.962 76.0093 145.85 74 150.945 74C156.04 74 160.928 76.0093 164.547 79.5905C166.333 81.3562 167.752 83.4581 168.72 85.7746C169.688 88.091 170.186 90.5761 170.186 93.0862C170.186 95.5962 169.688 98.0813 168.72 100.398C167.752 102.714 166.333 104.816 164.547 106.582L118.893 151.825C115.276 155.401 110.391 157.406 105.301 157.406C100.211 157.406 95.3265 155.401 91.709 151.825L91.7279 151.844ZM129.007 184.12C127.22 182.355 125.802 180.253 124.834 177.936C123.866 175.62 123.367 173.135 123.367 170.625C123.367 168.115 123.866 165.63 124.834 163.313C125.802 160.997 127.22 158.895 129.007 157.129L190.634 96.0118C194.253 92.4248 199.146 90.4119 204.245 90.4119C209.345 90.4119 214.237 92.4248 217.856 96.0118C219.64 97.7772 221.056 99.8778 222.022 102.193C222.989 104.507 223.486 106.99 223.486 109.498C223.486 112.006 222.989 114.489 222.022 116.803C221.056 119.118 219.64 121.219 217.856 122.984L156.229 184.139C152.61 187.726 147.717 189.739 142.618 189.739C137.518 189.739 132.626 187.726 129.007 184.139V184.12Z" fill="#E3E5F5"/>
</svg>